<?xml version="1.0" encoding="UTF-8" standalone="no"?>
<svg
   xmlns:dc="http://purl.org/dc/elements/1.1/"
   xmlns:cc="http://creativecommons.org/ns#"
   xmlns:rdf="http://www.w3.org/1999/02/22-rdf-syntax-ns#"
   xmlns:svg="http://www.w3.org/2000/svg"
   xmlns="http://www.w3.org/2000/svg"
   xmlns:sodipodi="http://sodipodi.sourceforge.net/DTD/sodipodi-0.dtd"
   xmlns:inkscape="http://www.inkscape.org/namespaces/inkscape"
   version="1.1"
   x="0px"
   y="0px"
   viewBox="0 0 100 125"
   id="svg2"
   inkscape:version="0.91 r13725"
   sodipodi:docname="EuroCost.svg">
  <metadata
     id="metadata16">
    <rdf:RDF>
      <cc:Work
         rdf:about="">
        <dc:format>image/svg+xml</dc:format>
        <dc:type
           rdf:resource="http://purl.org/dc/dcmitype/StillImage" />
      </cc:Work>
    </rdf:RDF>
  </metadata>
  <defs
     id="defs14" />
  <sodipodi:namedview
     pagecolor="#ffffff"
     bordercolor="#666666"
     borderopacity="1"
     objecttolerance="10"
     gridtolerance="10"
     guidetolerance="10"
     inkscape:pageopacity="0"
     inkscape:pageshadow="2"
     inkscape:window-width="756"
     inkscape:window-height="480"
     id="namedview12"
     showgrid="false"
     inkscape:zoom="1.888"
     inkscape:cx="44.738492"
     inkscape:cy="62.5"
     inkscape:window-x="0"
     inkscape:window-y="0"
     inkscape:window-maximized="0"
     inkscape:current-layer="svg2" />
  <g
     transform="translate(0,-952.36218)"
     id="g4">
    <path
       style="text-indent:0;text-transform:none;direction:ltr;block-progression:tb;baseline-shift:baseline;color:#000000;enable-background:accumulate;"
       d="m 92.046568,958.3078 -38.9063,0.6875 a 2.0002,2.0002 0 0 0 -1.375,0.59375 L 6.5152676,1004.8391 a 2.0002,2.0002 0 0 0 0,2.8437 l 38.1876004,38.1563 a 2.0002,2.0002 0 0 0 2.8124,0 l 45.25,-45.25 a 2.0002,2.0002 0 0 0 0.5938,-1.37504 l 0.7188,-38.87501 a 2.0002,2.0002 0 0 0 -2.0313,-2.03125 z m -2,4 -0.6875,36.06246 -43.25,43.25004 -35.375,-35.375 43.25,-43.25 36.0625,-0.6875 z m -14.9375,6.96875 c -2.0515,0 -4.1026,0.79005 -5.6562,2.34375 -3.1076,3.10743 -3.1076,8.20507 0,11.3125 3.1074,3.1074 8.205,3.1074 11.3124,0 3.1075,-3.10741 3.1075,-8.20501 0,-11.3125 -1.5536,-1.5537 -3.6046,-2.34375 -5.6562,-2.34375 z m 0,3.96875 c 1.0196,0 2.0231,0.3981 2.8125,1.1875 1.5789,1.57891 1.5789,4.07746 0,5.65625 -1.5788,1.5788 -4.0774,1.5788 -5.6563,0 -1.5788,-1.57877 -1.5788,-4.07748 0,-5.65625 0.7894,-0.7894 1.8243,-1.1875 2.8438,-1.1875 z m -23.375,12.46875 c -7.6202,0 -14.066,5.07161 -16.2188,12.00001 l -2.7812,0 c -1.1037,0 -2,0.8955 -2,2 0,1.10464 0.8963,2.00004 2,2.00004 l 2.0625,0 c -0.02,0.3359 -0.062,0.6593 -0.062,1 0,0.6719 0.048,1.3482 0.125,2 l -2.125,0 c -1.1036,0 -2,0.8955 -2,2 0,1.1046 0.8964,2 2,2 l 3.125,0 c 2.436,6.4221 8.6173,11 15.875,11 5.4436,0 9.2082,-2.4244 12.375,-5.5938 a 1.9989842,2.0006324 0 1 0 -2.8125,-2.8437 c -2.8287,2.8306 -5.2059,4.4375 -9.563,4.4375 -5.0419,0 -9.3665,-2.8305 -11.5312,-7 l 12.5,0 c 1.1035,0 2,-0.8954 2,-2 0,-1.1045 -0.8965,-2 -2,-2 l -13.8126,0 c -0.1001,-0.6518 -0.1562,-1.3194 -0.1562,-2 0,-0.3432 0.037,-0.6636 0.062,-1 l 13.9063,0 c 1.1036,0 2,-0.8954 2,-2.00004 0,-1.1045 -0.8964,-2 -2,-2 l -12.9683,0 c 1.9572,-4.7033 6.5691,-8 12,-8 4.3571,0 6.7342,1.5757 9.5625,4.4062 a 1.9989842,2.0006324 0 1 0 2.8125,-2.8437 c -3.1669,-3.1694 -6.9313,-5.56251 -12.375,-5.56251 z"
       fill="#000000"
       fill-opacity="1"
       stroke="none"
       marker="none"
       visibility="visible"
       display="inline"
       overflow="visible"
       id="path6" />
  </g>
</svg>
