<?xml version="1.0" encoding="UTF-8" standalone="no"?>
<svg
   xmlns:dc="http://purl.org/dc/elements/1.1/"
   xmlns:cc="http://creativecommons.org/ns#"
   xmlns:rdf="http://www.w3.org/1999/02/22-rdf-syntax-ns#"
   xmlns:svg="http://www.w3.org/2000/svg"
   xmlns="http://www.w3.org/2000/svg"
   xmlns:sodipodi="http://sodipodi.sourceforge.net/DTD/sodipodi-0.dtd"
   xmlns:inkscape="http://www.inkscape.org/namespaces/inkscape"
   data-name="Layer 1"
   viewBox="0 0 50 62.5"
   x="0px"
   y="0px"
   id="svg2"
   version="1.1"
   inkscape:version="0.91 r13725"
   sodipodi:docname="noun_593274_cc.svg">
  <metadata
     id="metadata16">
    <rdf:RDF>
      <cc:Work
         rdf:about="">
        <dc:format>image/svg+xml</dc:format>
        <dc:type
           rdf:resource="http://purl.org/dc/dcmitype/StillImage" />
      </cc:Work>
    </rdf:RDF>
  </metadata>
  <defs
     id="defs14" />
  <sodipodi:namedview
     pagecolor="#ffffff"
     bordercolor="#666666"
     borderopacity="1"
     objecttolerance="10"
     gridtolerance="10"
     guidetolerance="10"
     inkscape:pageopacity="0"
     inkscape:pageshadow="2"
     inkscape:window-width="756"
     inkscape:window-height="480"
     id="namedview12"
     showgrid="false"
     inkscape:zoom="3.776"
     inkscape:cx="32.598144"
     inkscape:cy="-28.210643"
     inkscape:window-x="475"
     inkscape:window-y="20"
     inkscape:window-maximized="0"
     inkscape:current-layer="svg2" />
  <title
     id="title4">communication_tnp</title>
  <path
     d="M37,5H25A5,5,0,0,0,20.1,9H17.49a8.5,8.5,0,0,0,0,17h14a6.51,6.51,0,0,1,0,13H29.9A5,5,0,0,0,25,35H13a5,5,0,0,0,0,10H25a5,5,0,0,0,4.87-4h1.61a8.5,8.5,0,0,0,0-17h-14a6.51,6.51,0,0,1,0-13h2.6A5,5,0,0,0,25,15H37a5,5,0,0,0,5-5V10A5,5,0,0,0,37,5ZM15.13,42.07a2.9,2.9,0,0,1-2.09.87,1,1,0,0,0-.21,0A3,3,0,0,1,13,37H13a3,3,0,0,1,3,3A2.92,2.92,0,0,1,15.13,42.07ZM28,40a3,3,0,0,1-3,3H17A4.86,4.86,0,0,0,17,37h8a3,3,0,0,1,3,3V40ZM25,13a3,3,0,0,1,0-6H33a4.86,4.86,0,0,0,0,6H25Zm15-3a3,3,0,0,1-2.82,3,1,1,0,0,0-.2,0,3,3,0,0,1-3-3,3,3,0,0,1,3-3h0a3,3,0,0,1,3,3V10Zm3,0a1,1,0,0,1,1-1h4a1,1,0,0,1,0,2H44A1,1,0,0,1,43,10Zm0.11-2.55a1,1,0,0,1,.45-1.34l4-2a1,1,0,1,1,.89,1.79l-4,2A1,1,0,0,1,43.11,7.45Zm5.79,8a1,1,0,0,1-1.34.45l-4-2a1,1,0,0,1,.89-1.79l4,2A1,1,0,0,1,48.89,15.45ZM7,40a1,1,0,0,1-1,1H2a1,1,0,0,1,0-2H6A1,1,0,0,1,7,40ZM1.11,34.55a1,1,0,0,1,1.34-.45l4,2a1,1,0,0,1-.89,1.79l-4-2A1,1,0,0,1,1.11,34.55Zm5.79,8a1,1,0,0,1-.45,1.34l-4,2a1,1,0,0,1-.89-1.79l4-2A1,1,0,0,1,6.89,42.55Z"
     id="path6" />
</svg>
