<?xml version="1.0" encoding="UTF-8" standalone="no"?>
<svg
   xmlns:dc="http://purl.org/dc/elements/1.1/"
   xmlns:cc="http://creativecommons.org/ns#"
   xmlns:rdf="http://www.w3.org/1999/02/22-rdf-syntax-ns#"
   xmlns:svg="http://www.w3.org/2000/svg"
   xmlns="http://www.w3.org/2000/svg"
   xmlns:sodipodi="http://sodipodi.sourceforge.net/DTD/sodipodi-0.dtd"
   xmlns:inkscape="http://www.inkscape.org/namespaces/inkscape"
   version="1.1"
   x="0px"
   y="0px"
   viewBox="0 0 100 125"
   style="enable-background:new 0 0 100 100;"
   xml:space="preserve"
   id="svg2"
   inkscape:version="0.91 r13725"
   sodipodi:docname="noun_643079_cc.svg"><metadata
     id="metadata14"><rdf:RDF><cc:Work
         rdf:about=""><dc:format>image/svg+xml</dc:format><dc:type
           rdf:resource="http://purl.org/dc/dcmitype/StillImage" /></cc:Work></rdf:RDF></metadata><defs
     id="defs12" /><sodipodi:namedview
     pagecolor="#ffffff"
     bordercolor="#666666"
     borderopacity="1"
     objecttolerance="10"
     gridtolerance="10"
     guidetolerance="10"
     inkscape:pageopacity="0"
     inkscape:pageshadow="2"
     inkscape:window-width="756"
     inkscape:window-height="480"
     id="namedview10"
     showgrid="false"
     inkscape:zoom="1.888"
     inkscape:cx="-7.1758888"
     inkscape:cy="62.5"
     inkscape:window-x="0"
     inkscape:window-y="0"
     inkscape:window-maximized="0"
     inkscape:current-layer="svg2" /><path
     d="M74.1,34.9l-10.1,10c0,0-3,0-6.1-3c-3-3-3-6.1-3-6.1L65,25.7c-5.7-1.4-12.6,0.5-16.8,4.7c-6.3,6.3-0.7,14.3-2.3,15.9  C37.1,55.5,28,62.5,27.8,62.8c-2.7,2.7-2.8,7-0.2,9.5c2.6,2.6,6.9,2.4,9.5-0.2c0.3-0.3,7.8-9.8,16.5-18.5c1.6-1.6,9.3,4.3,15.8-2.1  C73.5,47.4,75.5,40.6,74.1,34.9z M33,69.9c-1.6,0-2.9-1.3-2.9-2.9c0-1.7,1.3-3,2.9-3c1.6,0,2.9,1.3,2.9,2.9S34.6,69.9,33,69.9z"
     id="path4" /></svg>