<?xml version="1.0" encoding="UTF-8" standalone="no"?>
<svg
   xmlns:dc="http://purl.org/dc/elements/1.1/"
   xmlns:cc="http://creativecommons.org/ns#"
   xmlns:rdf="http://www.w3.org/1999/02/22-rdf-syntax-ns#"
   xmlns:svg="http://www.w3.org/2000/svg"
   xmlns="http://www.w3.org/2000/svg"
   xmlns:sodipodi="http://sodipodi.sourceforge.net/DTD/sodipodi-0.dtd"
   xmlns:inkscape="http://www.inkscape.org/namespaces/inkscape"
   version="1.1"
   x="0px"
   y="0px"
   viewBox="0 0 100 125"
   enable-background="new 0 0 100 100"
   xml:space="preserve"
   id="svg2"
   inkscape:version="0.91 r13725"
   sodipodi:docname="noun_679443_cc.svg"><metadata
     id="metadata34"><rdf:RDF><cc:Work
         rdf:about=""><dc:format>image/svg+xml</dc:format><dc:type
           rdf:resource="http://purl.org/dc/dcmitype/StillImage" /></cc:Work></rdf:RDF></metadata><defs
     id="defs32" /><sodipodi:namedview
     pagecolor="#ffffff"
     bordercolor="#666666"
     borderopacity="1"
     objecttolerance="10"
     gridtolerance="10"
     guidetolerance="10"
     inkscape:pageopacity="0"
     inkscape:pageshadow="2"
     inkscape:window-width="756"
     inkscape:window-height="480"
     id="namedview30"
     showgrid="false"
     inkscape:zoom="1.888"
     inkscape:cx="32.763454"
     inkscape:cy="62.5"
     inkscape:window-x="0"
     inkscape:window-y="0"
     inkscape:window-maximized="0"
     inkscape:current-layer="svg2" /><rect
     x="5"
     y="5"
     fill="none"
     width="90.002"
     height="90"
     id="rect4" /><g
     id="g6"><path
       d="M44.614,17.011h10.798c0.313,0,0.566-0.254,0.566-0.567V9.361c0-0.313-0.254-0.567-0.566-0.567H44.614   c-0.313,0-0.566,0.254-0.566,0.567v7.083C44.048,16.757,44.302,17.011,44.614,17.011z M45.181,9.928h9.664v5.948h-9.664V9.928z"
       id="path8" /><path
       d="M39.525,27.647h20.953c0.521,0,0.943-0.423,0.943-0.945v-2.839c0-0.147-0.033-0.292-0.099-0.424l-2.264-4.506V6.647   c0-0.521-0.423-0.945-0.944-0.945H41.889c-0.521,0-0.944,0.423-0.944,0.945v12.287l-2.264,4.506c-0.065,0.131-0.1,0.277-0.1,0.424   v2.839C38.581,27.225,39.005,27.647,39.525,27.647z M40.471,25.758v-1.327h19.063v1.327H40.471z M57.342,19.724l1.794,3.573H40.868   l1.794-3.573H57.342z M57.17,7.592v10.999H42.834V7.592H57.17z"
       id="path10" /><path
       d="M44.604,83.661h10.798c0.313,0,0.566-0.254,0.566-0.566v-7.083c0-0.313-0.253-0.567-0.566-0.567H44.604   c-0.314,0-0.567,0.254-0.567,0.567v7.083C44.036,83.407,44.289,83.661,44.604,83.661z M45.17,76.58h9.663v5.947H45.17V76.58z"
       id="path12" /><path
       d="M59.06,85.585V73.298c0-0.522-0.423-0.945-0.944-0.945H41.889c-0.521,0-0.944,0.423-0.944,0.945v12.287l-2.264,4.506   c-0.065,0.131-0.1,0.276-0.1,0.424v2.839c0,0.523,0.424,0.944,0.944,0.944h20.953c0.521,0,0.943-0.421,0.943-0.944v-2.839   c0-0.147-0.033-0.293-0.1-0.424L59.06,85.585z M40.471,92.409v-1.328h19.063v1.328H40.471z M57.342,86.375l1.794,3.573H40.868   l1.794-3.573H57.342z M57.17,74.242v11H42.834v-11H57.17z"
       id="path14" /><path
       d="M78.16,83.661h10.798c0.313,0,0.565-0.254,0.565-0.566v-7.083c0-0.313-0.253-0.567-0.565-0.567H78.16   c-0.313,0-0.567,0.254-0.567,0.567v7.083C77.593,83.407,77.847,83.661,78.16,83.661z M78.727,76.58h9.663v5.947h-9.663V76.58z"
       id="path16" /><path
       d="M94.879,90.091l-2.263-4.506V73.298c0-0.522-0.423-0.945-0.945-0.945H75.446c-0.521,0-0.944,0.423-0.944,0.945v12.287   l-2.264,4.506c-0.065,0.131-0.101,0.276-0.101,0.424v2.839c0,0.523,0.423,0.944,0.945,0.944h20.952   c0.521,0,0.943-0.421,0.943-0.944v-2.839C94.979,90.367,94.946,90.222,94.879,90.091z M74.027,92.409v-1.328H93.09v1.328H74.027z    M90.899,86.375l1.793,3.573H74.424l1.797-3.573H90.899z M90.727,74.242v11H76.392v-11H90.727z"
       id="path18" /><path
       d="M11.047,83.661h10.797c0.313,0,0.567-0.254,0.567-0.566v-7.083c0-0.313-0.254-0.567-0.567-0.567H11.047   c-0.313,0-0.567,0.254-0.567,0.567v7.083C10.479,83.407,10.733,83.661,11.047,83.661z M11.613,76.58h9.664v5.947h-9.664V76.58z"
       id="path20" /><path
       d="M25.503,85.585V73.298c0-0.522-0.423-0.945-0.945-0.945H8.332c-0.521,0-0.945,0.423-0.945,0.945v12.287l-2.262,4.506   c-0.066,0.131-0.101,0.276-0.101,0.424v2.839c0,0.523,0.424,0.944,0.944,0.944h20.952c0.522,0,0.945-0.421,0.945-0.944v-2.839   c0-0.147-0.034-0.293-0.1-0.424L25.503,85.585z M6.914,92.409v-1.328h19.062v1.328H6.914z M23.786,86.375l1.794,3.573H7.312   l1.795-3.573H23.786z M23.612,74.242v11H9.277v-11H23.612z"
       id="path22" /><path
       d="M15.534,68.055L15.534,68.055l0.008,0.009c0.006,0.008,0.012,0.013,0.019,0.019c0.02,0.023,0.04,0.046,0.062,0.066   c0.011,0.011,0.022,0.02,0.032,0.028c0.02,0.02,0.04,0.037,0.061,0.053c0.012,0.009,0.024,0.019,0.036,0.028   c0.021,0.015,0.043,0.029,0.065,0.044c0.012,0.007,0.023,0.015,0.036,0.021c0.024,0.014,0.049,0.025,0.074,0.038   c0.01,0.006,0.022,0.012,0.034,0.017c0.026,0.013,0.054,0.023,0.081,0.034c0.012,0.004,0.022,0.007,0.033,0.011   c0.028,0.011,0.06,0.02,0.09,0.026c0.01,0.002,0.02,0.006,0.029,0.008c0.032,0.007,0.064,0.011,0.098,0.016   c0.009,0,0.018,0.003,0.027,0.004c0.041,0.004,0.084,0.008,0.126,0.008l0,0l0,0h0.001c0.042,0,0.084-0.004,0.126-0.008   c0.009-0.001,0.02-0.004,0.028-0.004c0.033-0.005,0.064-0.009,0.095-0.016c0.012-0.002,0.021-0.006,0.033-0.009   c0.029-0.006,0.059-0.015,0.087-0.025c0.012-0.004,0.022-0.007,0.036-0.014c0.025-0.008,0.052-0.019,0.077-0.031   c0.014-0.005,0.025-0.011,0.038-0.018c0.024-0.012,0.048-0.023,0.07-0.037c0.013-0.007,0.027-0.015,0.04-0.023   c0.02-0.013,0.04-0.027,0.061-0.042c0.014-0.01,0.027-0.02,0.04-0.03c0.02-0.014,0.037-0.031,0.055-0.047   c0.013-0.011,0.025-0.021,0.038-0.032c0.019-0.021,0.037-0.041,0.056-0.061c0.007-0.008,0.016-0.015,0.022-0.024l5.116-6.074   c0.42-0.498,0.356-1.245-0.144-1.665c-0.499-0.419-1.244-0.355-1.664,0.145l-3.03,3.597v-9.074v-3.81h31.199l0.005,12.882   l-3.029-3.595c-0.42-0.5-1.165-0.563-1.664-0.145c-0.499,0.42-0.563,1.167-0.144,1.665l5.115,6.074   c0.007,0.008,0.014,0.013,0.02,0.021c0.02,0.021,0.04,0.044,0.061,0.064c0.012,0.011,0.023,0.02,0.034,0.03   c0.02,0.018,0.038,0.035,0.059,0.051c0.012,0.009,0.025,0.019,0.038,0.028c0.021,0.015,0.041,0.029,0.063,0.042   c0.013,0.009,0.026,0.017,0.039,0.023c0.022,0.014,0.047,0.025,0.071,0.037c0.012,0.007,0.023,0.013,0.036,0.018   c0.026,0.013,0.053,0.023,0.08,0.034c0.012,0.004,0.023,0.007,0.034,0.011c0.028,0.011,0.059,0.02,0.088,0.026   c0.011,0.002,0.021,0.006,0.031,0.008c0.031,0.007,0.064,0.011,0.096,0.016c0.01,0,0.02,0.003,0.028,0.004   c0.041,0.004,0.084,0.008,0.127,0.008l0,0c0.043,0,0.084-0.004,0.126-0.008c0.01-0.001,0.019-0.004,0.027-0.004   c0.033-0.005,0.064-0.009,0.097-0.016c0.011-0.002,0.021-0.006,0.031-0.008c0.03-0.007,0.06-0.016,0.089-0.026   c0.012-0.004,0.022-0.007,0.033-0.014c0.027-0.008,0.054-0.019,0.08-0.031c0.013-0.005,0.024-0.011,0.037-0.018   c0.025-0.012,0.048-0.023,0.07-0.037c0.015-0.007,0.026-0.015,0.04-0.023c0.021-0.013,0.042-0.027,0.062-0.042   c0.014-0.01,0.025-0.02,0.039-0.03c0.02-0.014,0.038-0.031,0.057-0.049c0.012-0.011,0.024-0.02,0.036-0.03   c0.02-0.021,0.039-0.041,0.058-0.063c0.007-0.008,0.015-0.015,0.021-0.022l5.116-6.074c0.42-0.498,0.357-1.245-0.144-1.665   c-0.498-0.419-1.244-0.355-1.664,0.145l-3.03,3.599l-0.005-12.886h31.188v12.884l-3.029-3.597c-0.421-0.5-1.166-0.563-1.664-0.145   c-0.5,0.42-0.563,1.167-0.144,1.665l5.115,6.074c0.008,0.008,0.015,0.015,0.021,0.022c0.019,0.02,0.038,0.042,0.059,0.063   c0.01,0.011,0.022,0.02,0.033,0.03c0.02,0.018,0.039,0.035,0.058,0.051c0.013,0.009,0.026,0.019,0.04,0.028   c0.02,0.015,0.041,0.029,0.063,0.042c0.011,0.009,0.025,0.017,0.038,0.023c0.022,0.014,0.046,0.025,0.07,0.037   c0.014,0.007,0.025,0.013,0.037,0.018c0.026,0.013,0.053,0.023,0.08,0.034c0.012,0.004,0.022,0.007,0.035,0.011   c0.027,0.011,0.058,0.02,0.088,0.026c0.011,0.002,0.021,0.006,0.031,0.008c0.032,0.007,0.064,0.011,0.096,0.016   c0.009,0,0.02,0.003,0.028,0.004c0.041,0.004,0.083,0.008,0.127,0.008c0.041,0,0.083-0.004,0.125-0.008   c0.01-0.001,0.02-0.004,0.028-0.004c0.033-0.005,0.064-0.009,0.097-0.016c0.01-0.002,0.02-0.006,0.031-0.008   c0.028-0.007,0.058-0.016,0.088-0.026c0.013-0.004,0.023-0.007,0.033-0.011c0.028-0.011,0.055-0.021,0.08-0.034   c0.013-0.005,0.025-0.011,0.038-0.018c0.022-0.012,0.048-0.023,0.07-0.037c0.013-0.007,0.026-0.015,0.039-0.023   c0.021-0.013,0.042-0.027,0.063-0.042c0.014-0.01,0.025-0.02,0.037-0.028c0.021-0.016,0.039-0.033,0.059-0.051   c0.012-0.011,0.023-0.02,0.035-0.03c0.021-0.021,0.04-0.043,0.059-0.063c0.007-0.008,0.015-0.015,0.021-0.022l5.113-6.074   c0.421-0.498,0.356-1.245-0.141-1.665c-0.5-0.419-1.246-0.355-1.665,0.145l-3.03,3.597V50.001c0-0.653-0.528-1.182-1.181-1.182   H51.188l-0.003-12.882l3.029,3.596c0.232,0.278,0.567,0.421,0.903,0.421c0.271,0,0.539-0.091,0.761-0.278   c0.498-0.42,0.563-1.166,0.143-1.664l-5.114-6.074c-0.007-0.008-0.015-0.015-0.021-0.022c-0.02-0.022-0.039-0.043-0.061-0.063   c-0.011-0.011-0.023-0.021-0.034-0.031c-0.019-0.017-0.038-0.034-0.059-0.05c-0.012-0.009-0.024-0.019-0.037-0.028   c-0.021-0.015-0.042-0.029-0.063-0.043c-0.012-0.008-0.025-0.016-0.038-0.023c-0.022-0.014-0.047-0.026-0.07-0.037   c-0.013-0.006-0.024-0.013-0.037-0.018c-0.026-0.011-0.054-0.022-0.081-0.032c-0.011-0.004-0.021-0.009-0.033-0.013   c-0.029-0.009-0.059-0.017-0.089-0.024c-0.011-0.002-0.021-0.006-0.031-0.008c-0.031-0.007-0.063-0.012-0.096-0.016   c-0.009-0.001-0.019-0.003-0.028-0.004c-0.042-0.004-0.083-0.007-0.126-0.007h-0.001c-0.042,0-0.084,0.002-0.125,0.007   c-0.01,0.001-0.019,0.003-0.027,0.004c-0.034,0.004-0.065,0.009-0.097,0.016c-0.011,0.002-0.021,0.005-0.032,0.008   c-0.029,0.007-0.059,0.015-0.087,0.024c-0.013,0.004-0.024,0.009-0.035,0.013c-0.027,0.009-0.054,0.021-0.08,0.032   c-0.012,0.005-0.024,0.012-0.037,0.018c-0.023,0.012-0.048,0.023-0.07,0.037c-0.014,0.008-0.026,0.015-0.039,0.024   c-0.021,0.014-0.042,0.028-0.062,0.042c-0.015,0.009-0.027,0.019-0.04,0.029c-0.02,0.015-0.038,0.033-0.056,0.048   c-0.013,0.011-0.025,0.021-0.036,0.033c-0.021,0.02-0.039,0.04-0.058,0.062c-0.007,0.008-0.015,0.015-0.021,0.023l-5.116,6.074   c-0.419,0.499-0.355,1.244,0.144,1.664c0.499,0.419,1.244,0.356,1.664-0.143l3.032-3.599l0.003,12.885h-32.38   c-0.313,0-0.613,0.125-0.835,0.346c-0.221,0.221-0.347,0.522-0.347,0.836v4.99v9.074l-3.029-3.597   c-0.421-0.5-1.165-0.563-1.665-0.145c-0.499,0.42-0.563,1.167-0.143,1.665L15.534,68.055z"
       id="path24" /></g></svg>