<?xml version="1.0" encoding="UTF-8" standalone="no"?>
<svg
   xmlns:dc="http://purl.org/dc/elements/1.1/"
   xmlns:cc="http://creativecommons.org/ns#"
   xmlns:rdf="http://www.w3.org/1999/02/22-rdf-syntax-ns#"
   xmlns:svg="http://www.w3.org/2000/svg"
   xmlns="http://www.w3.org/2000/svg"
   xmlns:sodipodi="http://sodipodi.sourceforge.net/DTD/sodipodi-0.dtd"
   xmlns:inkscape="http://www.inkscape.org/namespaces/inkscape"
   version="1.1"
   x="0px"
   y="0px"
   viewBox="0 0 32 40"
   style="enable-background:new 0 0 32 32;"
   xml:space="preserve"
   id="svg2"
   inkscape:version="0.91 r13725"
   sodipodi:docname="Server.svg"><metadata
     id="metadata32"><rdf:RDF><cc:Work
         rdf:about=""><dc:format>image/svg+xml</dc:format><dc:type
           rdf:resource="http://purl.org/dc/dcmitype/StillImage" /></cc:Work></rdf:RDF></metadata><defs
     id="defs30" /><sodipodi:namedview
     pagecolor="#ffffff"
     bordercolor="#666666"
     borderopacity="1"
     objecttolerance="10"
     gridtolerance="10"
     guidetolerance="10"
     inkscape:pageopacity="0"
     inkscape:pageshadow="2"
     inkscape:window-width="756"
     inkscape:window-height="480"
     id="namedview28"
     showgrid="false"
     inkscape:zoom="5.9"
     inkscape:cx="53.575219"
     inkscape:cy="-0.33898305"
     inkscape:window-x="0"
     inkscape:window-y="0"
     inkscape:window-maximized="0"
     inkscape:current-layer="svg2" /><g
     id="g4"><path
       d="M27.484,21H4.516c-1.379,0-2.5-1.121-2.5-2.5v-5c0-1.379,1.122-2.5,2.5-2.5h22.968c1.379,0,2.5,1.122,2.5,2.5v5   C29.984,19.879,28.863,21,27.484,21z M4.516,13c-0.276,0-0.5,0.225-0.5,0.5v5c0,0.275,0.225,0.5,0.5,0.5h22.968   c0.275,0,0.5-0.225,0.5-0.5v-5c0-0.276-0.225-0.5-0.5-0.5H4.516z"
       id="path6" /><path
       d="M27.484,10H4.516c-1.379,0-2.5-1.122-2.5-2.5V2.5c0-1.379,1.122-2.5,2.5-2.5h22.968c1.379,0,2.5,1.122,2.5,2.5V7.5   C29.984,8.878,28.863,10,27.484,10z M4.516,2c-0.276,0-0.5,0.225-0.5,0.5V7.5c0,0.276,0.225,0.5,0.5,0.5h22.968   c0.275,0,0.5-0.225,0.5-0.5V2.5c0-0.276-0.225-0.5-0.5-0.5H4.516z"
       id="path8" /><path
       d="M27.484,32H4.516c-1.379,0-2.5-1.121-2.5-2.5v-5c0-1.379,1.122-2.5,2.5-2.5h22.968c1.379,0,2.5,1.121,2.5,2.5v5   C29.984,30.879,28.863,32,27.484,32z M4.516,24c-0.276,0-0.5,0.225-0.5,0.5v5c0,0.275,0.225,0.5,0.5,0.5h22.968   c0.275,0,0.5-0.225,0.5-0.5v-5c0-0.275-0.225-0.5-0.5-0.5H4.516z"
       id="path10" /><circle
       cx="6.984"
       cy="5"
       r="1"
       id="circle12" /><circle
       cx="6.984"
       cy="16"
       r="1"
       id="circle14" /><circle
       cx="6.984"
       cy="27"
       r="1"
       id="circle16" /><circle
       cx="11"
       cy="5"
       r="1"
       id="circle18" /><circle
       cx="11"
       cy="16"
       r="1"
       id="circle20" /><circle
       cx="11"
       cy="27"
       r="1"
       id="circle22" /></g></svg>