<?xml version="1.0" encoding="UTF-8" standalone="no"?>
<svg
   xmlns:dc="http://purl.org/dc/elements/1.1/"
   xmlns:cc="http://creativecommons.org/ns#"
   xmlns:rdf="http://www.w3.org/1999/02/22-rdf-syntax-ns#"
   xmlns:svg="http://www.w3.org/2000/svg"
   xmlns="http://www.w3.org/2000/svg"
   xmlns:sodipodi="http://sodipodi.sourceforge.net/DTD/sodipodi-0.dtd"
   xmlns:inkscape="http://www.inkscape.org/namespaces/inkscape"
   version="1.1"
   x="0px"
   y="0px"
   viewBox="0 0 100 125"
   style="enable-background:new 0 0 100 100;"
   xml:space="preserve"
   id="svg2"
   inkscape:version="0.91 r13725"
   sodipodi:docname="noun_643076_cc.svg"><metadata
     id="metadata16"><rdf:RDF><cc:Work
         rdf:about=""><dc:format>image/svg+xml</dc:format><dc:type
           rdf:resource="http://purl.org/dc/dcmitype/StillImage" /></cc:Work></rdf:RDF></metadata><defs
     id="defs14" /><sodipodi:namedview
     pagecolor="#ffffff"
     bordercolor="#666666"
     borderopacity="1"
     objecttolerance="10"
     gridtolerance="10"
     guidetolerance="10"
     inkscape:pageopacity="0"
     inkscape:pageshadow="2"
     inkscape:window-width="756"
     inkscape:window-height="480"
     id="namedview12"
     showgrid="false"
     inkscape:zoom="1.888"
     inkscape:cx="50"
     inkscape:cy="62.5"
     inkscape:window-x="0"
     inkscape:window-y="0"
     inkscape:window-maximized="0"
     inkscape:current-layer="svg2" /><path
     d="M52.2,64.4c0.1-0.6,0.1-1.3,0.1-1.9c0-0.7,0-1.3-0.1-1.9l3.9-2.8c0.4-0.3,0.6-0.8,0.3-1.3l-3.8-6.4  c-0.3-0.4-0.7-0.6-1.1-0.4l-4.3,2.1c-1-0.8-2.1-1.4-3.3-1.9l-0.4-4.7c0-0.4-0.4-0.8-0.8-0.8h-7.4c-0.4,0-0.8,0.4-0.8,0.8l-0.6,4.9  c-1.3,0.4-2.2,1.1-3.3,1.9l-4.3-1.9c-0.4-0.1-1,0-1.1,0.4l-3.8,6.4c-0.3,0.4-0.1,1,0.3,1.3l3.9,2.8c-0.1,0.6-0.1,1.3-0.1,1.9  c0,0.7,0,1.3,0.1,1.9l-3.9,2.8c-0.4,0.3-0.6,0.8-0.3,1.3l3.8,6.4c0.3,0.4,0.7,0.6,1.1,0.4l4.3-1.9c1,0.8,2.1,1.4,3.3,1.9l0.4,4.7  c0,0.4,0.4,0.8,0.8,0.8h7.4c0.4,0,0.8-0.4,0.8-0.8l0.4-4.7c1.3-0.4,2.2-1.1,3.3-1.9l4.3,1.9c0.4,0.1,1,0,1.1-0.4l3.8-6.4  c0.3-0.4,0.1-1-0.3-1.3L52.2,64.4z M38.8,69.4c-3.9,0-6.9-3.1-6.9-6.9c0-3.9,3.1-6.9,6.9-6.9c3.9,0,6.9,3.1,6.9,6.9  C45.8,66.3,42.7,69.4,38.8,69.4z"
     id="path4" /><path
     d="M74.8,37.8C75,37.1,75,36.6,75,36s0-1.1-0.1-1.8l3.5-2.5c0.4-0.3,0.4-0.7,0.3-1.1l-3.5-6c-0.3-0.4-0.7-0.6-1.1-0.3l-4,1.8  c-1-0.7-1.9-1.3-3.1-1.8L66.5,20c0.1-0.4-0.1-0.7-0.6-0.7h-6.8c-0.4,0-0.8,0.3-0.8,0.7l-0.4,4.3c-1.1,0.4-2.1,1-3.1,1.8l-4-1.8  c-0.4-0.1-0.8,0-1.1,0.3l-3.5,6c-0.3,0.4-0.1,0.8,0.3,1.1l3.5,2.5c0,0.7,0,1.3,0,1.8s0,1.1,0.1,1.8l-3.5,2.5  c-0.4,0.3-0.4,0.7-0.3,1.1l3.5,6c0.3,0.4,0.7,0.6,1.1,0.3l4-1.8c1,0.7,1.9,1.3,3.1,1.8l0.4,4.3c0,0.4,0.4,0.7,0.8,0.7h6.8  c0.4,0,0.8-0.3,0.8-0.7l0.4-4.3c1.1-0.4,2.1-1,3.1-1.8l4,1.8c0.4,0.1,0.8,0,1.1-0.3l3.5-6c0.3-0.4,0.1-0.8-0.3-1.1L74.8,37.8z   M62.4,43c-3.9,0-6.9-3.1-6.9-6.9s3.1-6.9,6.9-6.9c3.9,0,6.9,3.1,6.9,6.9S66.3,43,62.4,43z"
     id="path6" /></svg>