<?xml version="1.0" encoding="UTF-8" standalone="no"?>
<svg
   xmlns:dc="http://purl.org/dc/elements/1.1/"
   xmlns:cc="http://creativecommons.org/ns#"
   xmlns:rdf="http://www.w3.org/1999/02/22-rdf-syntax-ns#"
   xmlns:svg="http://www.w3.org/2000/svg"
   xmlns="http://www.w3.org/2000/svg"
   xmlns:sodipodi="http://sodipodi.sourceforge.net/DTD/sodipodi-0.dtd"
   xmlns:inkscape="http://www.inkscape.org/namespaces/inkscape"
   version="1.1"
   x="0px"
   y="0px"
   viewBox="0 0 100 125"
   enable-background="new 0 0 100 100"
   xml:space="preserve"
   id="svg2"
   inkscape:version="0.91 r13725"
   sodipodi:docname="SystemSoftware.svg"><metadata
     id="metadata14"><rdf:RDF><cc:Work
         rdf:about=""><dc:format>image/svg+xml</dc:format><dc:type
           rdf:resource="http://purl.org/dc/dcmitype/StillImage" /></cc:Work></rdf:RDF></metadata><defs
     id="defs12" /><sodipodi:namedview
     pagecolor="#ffffff"
     bordercolor="#666666"
     borderopacity="1"
     objecttolerance="10"
     gridtolerance="10"
     guidetolerance="10"
     inkscape:pageopacity="0"
     inkscape:pageshadow="2"
     inkscape:window-width="756"
     inkscape:window-height="480"
     id="namedview10"
     showgrid="false"
     inkscape:zoom="1.888"
     inkscape:cx="50"
     inkscape:cy="62.5"
     inkscape:window-x="0"
     inkscape:window-y="0"
     inkscape:window-maximized="0"
     inkscape:current-layer="svg2" /><path
     d="M31.36,24.878c-2.008-1.896-5.172-1.805-7.068,0.203L4.01,46.562c-1.819,1.926-1.82,4.938-0.001,6.864l20.282,21.492  c0.983,1.043,2.309,1.568,3.637,1.568c1.231,0,2.465-0.452,3.431-1.363c2.008-1.896,2.1-5.06,0.205-7.068l-17.042-18.06  l17.042-18.049C33.459,29.938,33.368,26.774,31.36,24.878z M95.991,46.574L75.708,25.082c-1.897-2.009-5.062-2.1-7.068-0.205  c-2.009,1.895-2.1,5.06-0.205,7.068l17.044,18.06L68.436,68.054c-1.896,2.008-1.805,5.173,0.203,7.068  c0.966,0.912,2.2,1.364,3.432,1.364c1.328,0,2.653-0.525,3.637-1.567l20.283-21.48C97.809,51.513,97.81,48.501,95.991,46.574z   M59.933,24.127c-2.576-0.987-5.47,0.299-6.46,2.876L37.195,69.414c-0.99,2.578,0.298,5.47,2.876,6.459  c0.589,0.227,1.195,0.333,1.791,0.333c2.01,0,3.906-1.221,4.669-3.209l16.277-42.411C63.798,28.008,62.511,25.116,59.933,24.127z"
     id="path4" /></svg>